<?xml version="1.0" encoding="utf-8"?>
<!-- Generator: Adobe Illustrator 22.1.0, SVG Export Plug-In . SVG Version: 6.00 Build 0)  -->
<svg version="1.1" id="Layer_1" xmlns="http://www.w3.org/2000/svg" xmlns:xlink="http://www.w3.org/1999/xlink" x="0px" y="0px"
	 viewBox="0 0 135 325" style="enable-background:new 0 0 135 325;" xml:space="preserve">
<style type="text/css">
	.st0{fill:#FF6600;}
	.st1{fill:#D6FF32;}
	.st2{fill:#262626;}
</style>
<polygon class="st0" points="135,326 83.5,274.5 135,223 136.4,224.4 86.3,274.5 136.4,324.6 "/>
<polygon class="st1" points="135,224.4 22.3,111.7 135,-1 136.4,0.4 25.1,111.7 136.4,223 "/>
<rect x="60.1" y="18.8" transform="matrix(0.7071 -0.7071 0.7071 0.7071 1.9486 53.6948)" class="st2" width="11.4" height="11.4"/>
<rect x="60.1" y="35.5" transform="matrix(0.7071 -0.7071 0.7071 0.7071 -9.8599 58.6113)" class="st2" width="11.4" height="11.4"/>
<rect x="60.1" y="52.3" transform="matrix(0.7071 -0.7071 0.7071 0.7071 -21.7393 63.4986)" class="st2" width="11.4" height="11.4"/>
<rect x="60.1" y="69" transform="matrix(0.7071 -0.7071 0.7071 0.7071 -33.5478 68.4152)" class="st2" width="11.4" height="11.4"/>
<rect x="29.5" y="117.4" transform="matrix(0.7071 -0.7071 0.7071 0.7071 -105.2645 68.869)" class="st1" width="2" height="88.2"/>
</svg>
